<svg width="128" height="48" viewBox="0 0 128 48" fill="none" xmlns="http://www.w3.org/2000/svg">
  <defs>
    <linearGradient id="cloud" x1="18" y1="7" x2="107" y2="41" gradientUnits="userSpaceOnUse">
      <stop stop-color="#f4fbfd" stop-opacity="0.95"/>
      <stop offset="0.58" stop-color="#d6e8ee" stop-opacity="0.84"/>
      <stop offset="1" stop-color="#9fb9c2" stop-opacity="0.52"/>
    </linearGradient>
    <filter id="soft" x="0" y="0" width="128" height="48" color-interpolation-filters="sRGB">
      <feGaussianBlur stdDeviation="0.35"/>
    </filter>
  </defs>
  <path filter="url(#soft)" d="M15 33.5c0-7 5.5-12.6 12.7-12.6 2 0 3.8.4 5.5 1.2C37 12.8 45.7 6.8 55.7 6.8c9.3 0 17.2 5.2 21.1 12.7 3.4-2.4 7.5-3.8 12-3.8 9.7 0 18 6.6 20.2 15.6h1.7c5.7 0 10.3 3.6 10.3 8.1 0 4.4-4.6 8-10.3 8H25.5C19.7 47.4 15 41.2 15 33.5z" fill="url(#cloud)"/>
  <path d="M30 35.5c8.2 1.3 16.8 2 25.8 2 18.3 0 35.5-2.9 49.7-8.1" stroke="#ffffff" stroke-opacity="0.32" stroke-width="2" stroke-linecap="round"/>
  <path d="M40 24.5c3.8-5 9-7.7 15.2-7.7 5.7 0 10.6 2.3 14.2 6.3" stroke="#ffffff" stroke-opacity="0.26" stroke-width="1.5" stroke-linecap="round"/>
</svg>
