<svg xmlns="http://www.w3.org/2000/svg" viewBox="0 0 44 24" fill="none">
  <rect x="1" y="1" width="42" height="22" rx="11" fill="#111a20" stroke="#b79f7a" stroke-width="2"/>
  <path d="M12 17V9.5C12 6.5 14.5 4 17.5 4h9C29.5 4 32 6.5 32 9.5V17" stroke="#e5d4ad" stroke-width="1.6" stroke-linecap="round"/>
  <path d="M15 17v-6.8C15 8.4 16.5 7 18.2 7h7.6C27.5 7 29 8.4 29 10.2V17" fill="#2c3841" stroke="#8ec7d2" stroke-width="1.3"/>
  <path d="M18 12h8M18 15h8" stroke="#dfe7dc" stroke-opacity="0.72" stroke-width="1.2" stroke-linecap="round"/>
  <path d="M8 8c2.8 1.7 5.5 2.5 8 2.4M36 8c-2.8 1.7-5.5 2.5-8 2.4" stroke="#b66a62" stroke-width="1.3" stroke-linecap="round"/>
</svg>
