<svg xmlns="http://www.w3.org/2000/svg" viewBox="0 0 24 32">
  <path d="M8.7 8.5c0-2.9 1.8-5 4.4-5s4.4 2.1 4.4 5-1.8 5.1-4.4 5.1-4.4-2.2-4.4-5.1z" fill="#d6dfd5"/>
  <path d="M7.1 15.2c.8-2.1 2.8-3.3 6-3.3s5.1 1.2 5.9 3.3l1.3 7.7H5.8z" fill="#4f7555"/>
  <path d="M8.2 15.7h9.8l.5 3.3H7.7z" fill="#a6c6a3" opacity=".42"/>
  <path d="M8.2 22.2h4.2v6.7H8.7zM14.8 22.2H19l-.4 6.7h-3.8z" fill="#27382a"/>
  <path d="M5.3 17.1l2.3.7-1 5.6-2.5-.5zM19.4 17.1l2.4.8-1.4 5.4-2.5-.6z" fill="#d6dfd5"/>
  <path d="M8 6.5c1.7-2.8 5.6-3.4 9.2-1.4l1.2 2.7H7.6z" fill="#38633f"/>
  <path d="M7 7.5h11.4" stroke="#88b58b" stroke-width="1.8" stroke-linecap="round"/>
  <path d="M20.1 11.2l-2.4 17" stroke="#b8a263" stroke-width="1.6" stroke-linecap="round"/>
  <path d="M15.8 27.1l5.7.8 1.1 2.5-8.2-1.1z" fill="#b8a263"/>
  <path d="M16.2 27.3l4.7.6" stroke="#705d2e" stroke-width=".8"/>
</svg>
