<svg xmlns="http://www.w3.org/2000/svg" viewBox="0 0 24 36" role="img" aria-label="luxury visitor">
  <defs>
    <linearGradient id="lux-coat" x1="4" x2="20" y1="14" y2="32" gradientUnits="userSpaceOnUse">
      <stop offset="0" stop-color="#6a3a4a"/>
      <stop offset="1" stop-color="#2a1220"/>
    </linearGradient>
    <linearGradient id="lux-face" x1="8" x2="16" y1="4" y2="13" gradientUnits="userSpaceOnUse">
      <stop offset="0" stop-color="#e8d7bc"/>
      <stop offset="1" stop-color="#bd9d7a"/>
    </linearGradient>
    <linearGradient id="lux-gold" x1="0" x2="0" y1="0" y2="1">
      <stop offset="0" stop-color="#f0d086"/>
      <stop offset="1" stop-color="#a17935"/>
    </linearGradient>
  </defs>
  <path fill="#050b12" fill-opacity=".34" d="M5 33c2.2 1.7 11.8 1.7 14 0v1.2c-2.1 1.8-11.9 1.8-14 0z"/>
  <path fill="#14070e" d="M7 14h10l2.3 18c-3.9 2.2-10.9 2.2-14.8 0z"/>
  <path fill="url(#lux-coat)" d="M8 14.4h8l1.9 16.5c-3.4 1.6-8.6 1.6-12 0z"/>
  <!-- Fur/shawl collar — luxury read -->
  <path fill="#e8c79a" d="M7.8 13.5c1.4-1.2 3-1.6 4.2-1.6s2.8 0.4 4.2 1.6l-0.4 2.3c-1-0.6-2.4-0.9-3.8-0.9s-2.8 0.3-3.8 0.9z"/>
  <path fill="#c4a27a" opacity=".55" d="M8.2 13.6c1-0.8 2.2-1.1 3.8-1.1s2.8 0.3 3.8 1.1c-1 0-2.2 0.2-3.8 0.2s-2.8-0.2-3.8-0.2z"/>
  <ellipse cx="12" cy="8.5" fill="url(#lux-face)" rx="4.4" ry="5.2"/>
  <!-- Updo / styled hair -->
  <path fill="#3a2218" d="M7.4 8.4c.3-4 2-6.2 4.6-6.2 2.6 0 4.6 2.3 4.6 6.2-0.7-1.2-2.2-1.9-4.6-1.9s-3.9 0.7-4.6 1.9z"/>
  <path fill="#3a2218" d="M10.5 2.6c.6-.6 1.6-.6 2.4 0 .7-.3 1.4.1 1.6.7-.6-.2-1.4.1-1.8.5-.4-.4-1.2-.7-1.8-.5-.3-.4-0.4-.6-0.4-0.7z"/>
  <!-- Necklace / jewelry pendant -->
  <path d="M10 14.8c.7 1 1.3 1 2 1s1.3 0 2-1" stroke="url(#lux-gold)" stroke-width="0.6" fill="none"/>
  <circle cx="12" cy="16.2" r="0.9" fill="url(#lux-gold)"/>
  <path fill="#1a0a10" d="M5.8 19h2.5l-1 9.3H5.1zm10.1 0h2.5l.8 9.3h-2.3z"/>
  <path fill="#14070e" d="M8.4 31.1h2.4v3.2H8.4zm4.8 0h2.4v3.2h-2.4z"/>
</svg>
