<svg xmlns="http://www.w3.org/2000/svg" viewBox="0 0 24 36" role="img" aria-label="visitor">
  <defs>
    <linearGradient id="coat" x1="4" x2="20" y1="14" y2="32" gradientUnits="userSpaceOnUse">
      <stop offset="0" stop-color="#c8b89a"/>
      <stop offset="1" stop-color="#81766b"/>
    </linearGradient>
    <linearGradient id="face" x1="8" x2="16" y1="4" y2="13" gradientUnits="userSpaceOnUse">
      <stop offset="0" stop-color="#e2d0b4"/>
      <stop offset="1" stop-color="#b99a78"/>
    </linearGradient>
  </defs>
  <path fill="#050b12" fill-opacity=".34" d="M5 33c2.2 1.7 11.8 1.7 14 0v1.2c-2.1 1.8-11.9 1.8-14 0z"/>
  <path fill="#27313a" d="M7.2 13.7h9.6l2.5 18.1c-3.9 2.2-10.7 2.2-14.6 0z"/>
  <path fill="url(#coat)" d="M8.2 14.1h7.6l2 16.5c-3.2 1.6-8.4 1.6-11.6 0z"/>
  <path fill="#3b4650" d="m8.2 14.1 3.5 10.5-5.5 6zm7.6 0-3.5 10.5 5.5 6z" opacity=".48"/>
  <path fill="#0e151d" d="M9.1 13h5.8l-.9 4.7h-4z"/>
  <ellipse cx="12" cy="8.5" fill="url(#face)" rx="4.6" ry="5.4"/>
  <path fill="#30343a" d="M7.5 8.2c.4-4 2.2-6 5.1-6 2.4 0 4.1 1.5 4.4 4.5-3.1-.8-5.6-.7-9.5 1.5z"/>
  <path fill="#eef1e5" d="M9.7 15.3h4.6l-2.3 5z"/>
  <path fill="#87714f" d="M10.2 21.3h3.6v1.8h-3.6z"/>
  <path fill="#111827" d="M5.7 18.7h2.5l-1 9.5H4.9zm10.1 0h2.5l.8 9.5h-2.3z"/>
  <path fill="#1a232d" d="M8.4 31.1h2.4v3.2H8.4zm4.8 0h2.4v3.2h-2.4z"/>
</svg>
